<svg width="420" height="321" viewBox="0 0 420 321" fill="none" xmlns="http://www.w3.org/2000/svg">
<path d="M142.4 111.1L136.9 109.7L125.9 106.9L124.5 112.4L135.5 115.2L132.7 126.2L138.2 127.6L142.4 111.1Z" fill="#FCE301"/>
<path d="M156.2 102.9L150.7 101.5L139.7 98.7L138.3 104.2L149.3 107L146.5 118L152 119.4L156.2 102.9Z" fill="#FCE301"/>
<path d="M170 94.7L164.5 93.3L153.5 90.5L152.1 96L163.1 98.8L160.3 109.8L165.8 111.2L170 94.7Z" fill="#FCE301"/>
<path d="M147.8 135.9L142.3 134.5L131.3 131.7L129.9 137.2L140.9 140L138.1 151L143.6 152.4L147.8 135.9Z" fill="#FCE301"/>
<path d="M161.6 127.7L156.1 126.3L145.1 123.5L143.7 129L154.7 131.8L151.9 142.8L157.4 144.2L161.6 127.7Z" fill="#FCE301"/>
<path d="M175.4 119.5L169.9 118.1L158.9 115.3L157.5 120.8L168.5 123.6L165.7 134.6L171.2 136L175.4 119.5Z" fill="#FCE301"/>
<path d="M160.1 156.6L165.6 158L176.6 160.8L178 155.3L167 152.5L169.8 141.5L164.3 140.1L160.1 156.6Z" fill="#FCE301"/>
<path d="M146.4 164.8L151.8 166.2L162.8 169L164.2 163.5L153.2 160.7L156 149.7L150.5 148.3L146.3 164.8H146.4Z" fill="#FCE301"/>
<path d="M132.6 173L138.1 174.4L149.1 177.2L150.4 171.7L139.5 168.9L142.2 157.9L136.8 156.5L132.6 173Z" fill="#FCE301"/>
<path d="M101.1 135.7L95.6002 134.3L84.6002 131.6L83.2002 137.1L94.2002 139.8L91.4002 150.8L96.9002 152.2L101.1 135.7Z" fill="#FCE301"/>
<path d="M114.9 127.5L109.4 126.1L98.4 123.3L97 128.8L108 131.6L105.2 142.6L110.7 144L114.9 127.5Z" fill="#FCE301"/>
<path d="M128.6 119.3L123.1 117.9L112.2 115.1L110.8 120.6L121.7 123.4L119 134.4L124.5 135.8L128.6 119.3Z" fill="#FCE301"/>
<path d="M106.5 160.5L101 159.1L90.0001 156.3L88.6001 161.8L99.6001 164.6L96.8001 175.6L102.3 177L106.5 160.5Z" fill="#FCE301"/>
<path d="M120.3 152.3L114.8 150.9L103.8 148.1L102.4 153.6L113.4 156.4L110.6 167.4L116.1 168.8L120.3 152.3Z" fill="#FCE301"/>
<path d="M134.1 144.1L128.6 142.7L117.6 139.9L116.2 145.4L127.2 148.2L124.4 159.2L129.9 160.6L134.1 144.1Z" fill="#FCE301"/>
<path d="M118.8 181.2L124.3 182.6L135.3 185.4L136.7 179.9L125.7 177.1L128.5 166.1L123 164.7L118.8 181.2Z" fill="#FCE301"/>
<path d="M105 189.4L110.5 190.8L121.5 193.6L122.9 188.1L111.9 185.3L114.7 174.3L109.2 172.9L105 189.4Z" fill="#FCE301"/>
<path d="M91.2002 197.6L96.7002 199L107.7 201.8L109.1 196.3L98.1002 193.5L100.9 182.5L95.4002 181.1L91.2002 197.6Z" fill="#FCE301"/>
<path d="M172.4 177.2L166.9 175.9L155.9 173.1L154.5 178.6L165.5 181.3L162.8 192.3L168.2 193.7L172.4 177.2Z" fill="#FCE301"/>
<path d="M186.2 169L180.7 167.6L169.7 164.9L168.3 170.3L179.3 173.1L176.5 184.1L182 185.5L186.2 169Z" fill="#FCE301"/>
<path d="M200 160.8L194.5 159.4L183.5 156.7L182.1 162.1L193.1 164.9L190.3 175.9L195.8 177.3L200 160.8Z" fill="#FCE301"/>
<path d="M177.8 202L172.3 200.6L161.4 197.8L160 203.3L171 206.1L168.2 217.1L173.7 218.5L177.8 202Z" fill="#FCE301"/>
<path d="M191.6 193.8L186.1 192.4L175.1 189.6L173.8 195.1L184.7 197.9L182 208.9L187.5 210.3L191.6 193.8Z" fill="#FCE301"/>
<path d="M205.4 185.6L199.9 184.2L188.9 181.4L187.5 186.9L198.5 189.7L195.7 200.7L201.2 202.1L205.4 185.6Z" fill="#FCE301"/>
<path d="M190.2 222.7L195.6 224.1L206.6 226.9L208 221.4L197 218.6L199.8 207.6L194.3 206.2L190.2 222.7Z" fill="#FCE301"/>
<path d="M176.4 230.9L181.9 232.3L192.9 235.1L194.3 229.6L183.3 226.8L186.1 215.8L180.6 214.4L176.4 230.9Z" fill="#FCE301"/>
<path d="M162.6 239.1L168.1 240.5L179.1 243.3L180.5 237.8L169.5 235L172.3 224L166.8 222.6L162.6 239.1Z" fill="#FCE301"/>
<path d="M131.1 201.9L125.6 200.5L114.6 197.7L113.2 203.2L124.2 206L121.4 216.9L126.9 218.3L131.1 201.9Z" fill="#FCE301"/>
<path d="M144.9 193.6L139.4 192.3L128.4 189.5L127 195L138 197.7L135.2 208.7L140.7 210.1L144.9 193.6Z" fill="#FCE301"/>
<path d="M158.7 185.4L153.2 184.1L142.2 181.3L140.8 186.8L151.8 189.6L149 200.5L154.5 201.9L158.7 185.5V185.4Z" fill="#FCE301"/>
<path d="M136.5 226.6L131 225.2L120 222.4L118.6 227.9L129.6 230.7L126.8 241.7L132.3 243.1L136.5 226.6Z" fill="#FCE301"/>
<path d="M150.3 218.4L144.8 217L133.8 214.2L132.4 219.7L143.4 222.5L140.6 233.5L146.1 234.9L150.3 218.4Z" fill="#FCE301"/>
<path d="M164.1 210.2L158.6 208.8L147.6 206L146.2 211.5L157.2 214.3L154.4 225.3L159.9 226.7L164.1 210.2Z" fill="#FCE301"/>
<path d="M148.8 247.3L154.3 248.7L165.3 251.5L166.7 246L155.7 243.2L158.5 232.2L153 230.8L148.8 247.3Z" fill="#FCE301"/>
<path d="M135 255.5L140.5 256.9L151.5 259.7L152.9 254.2L141.9 251.4L144.7 240.4L139.2 239L135 255.5Z" fill="#FCE301"/>
<path d="M121.3 263.7L126.8 265.1L137.8 267.9L139.1 262.4L128.2 259.6L130.9 248.6L125.4 247.2L121.3 263.7Z" fill="#FCE301"/>
<path d="M59.6998 160.3L54.1998 159L43.1998 156.2L41.7998 161.7L52.7998 164.4L49.9998 175.4L55.4998 176.8L59.6998 160.3Z" fill="#FCE301"/>
<path d="M73.5001 152.1L68.0001 150.7L57.0001 148L55.6001 153.4L66.6001 156.2L63.8001 167.2L69.3001 168.6L73.5001 152.1Z" fill="#FCE301"/>
<path d="M87.2999 143.9L81.7999 142.5L70.7999 139.8L69.3999 145.3L80.3999 148L77.5999 159L83.0999 160.4L87.2999 143.9Z" fill="#FCE301"/>
<path d="M65.0998 185.1L59.5998 183.7L48.6998 180.9L47.2998 186.4L58.2998 189.2L55.4998 200.2L60.9998 201.6L65.0998 185.1Z" fill="#FCE301"/>
<path d="M78.9001 176.9L73.4001 175.5L62.4001 172.7L61.1001 178.2L72.0001 181L69.3001 192L74.8001 193.4L78.9001 176.9Z" fill="#FCE301"/>
<path d="M92.6998 168.7L87.1998 167.3L76.1998 164.5L74.7998 170L85.7998 172.8L82.9998 183.8L88.4998 185.2L92.6998 168.7Z" fill="#FCE301"/>
<path d="M77.5 205.8L82.9 207.2L93.9 210L95.3 204.5L84.3 201.7L87.1 190.7L81.6 189.3L77.5 205.8Z" fill="#FCE301"/>
<path d="M63.7002 214L69.2002 215.4L80.2002 218.2L81.6002 212.7L70.6002 209.9L73.4002 198.9L67.9002 197.5L63.7002 214Z" fill="#FCE301"/>
<path d="M49.8999 222.2L55.3999 223.6L66.3999 226.4L67.7999 220.9L56.7999 218.1L59.5999 207.1L54.0999 205.7L49.8999 222.2Z" fill="#FCE301"/>
<path d="M18.4 185L12.9 183.6L1.89999 180.8L0.5 186.3L11.5 189.1L8.70001 200.1L14.2 201.4L18.4 185Z" fill="#FCE301"/>
<path d="M32.1998 176.7L26.6998 175.4L15.6998 172.6L14.2998 178.1L25.2998 180.9L22.4998 191.8L27.9998 193.2L32.1998 176.7Z" fill="#FCE301"/>
<path d="M46.0001 168.6L40.5001 167.2L29.5001 164.4L28.1001 169.9L39.1001 172.7L36.3001 183.6L41.8001 185L46.0001 168.6Z" fill="#FCE301"/>
<path d="M23.7999 209.7L18.2999 208.3L7.2999 205.6L5.8999 211L16.8999 213.8L14.0999 224.8L19.5999 226.2L23.7999 209.7Z" fill="#FCE301"/>
<path d="M37.6002 201.5L32.1002 200.1L21.1002 197.3L19.7002 202.8L30.7002 205.6L27.9002 216.6L33.4002 218L37.6002 201.5Z" fill="#FCE301"/>
<path d="M51.4 193.3L45.9 191.9L34.9 189.1L33.5 194.6L44.5 197.4L41.7 208.4L47.2 209.8L51.4 193.3Z" fill="#FCE301"/>
<path d="M36.1001 230.4L41.6001 231.8L52.6001 234.6L54.0001 229.1L43.0001 226.3L45.8001 215.3L40.3001 213.9L36.1001 230.4Z" fill="#FCE301"/>
<path d="M22.2998 238.6L27.7998 240L38.7998 242.8L40.1998 237.3L29.1998 234.5L31.9998 223.5L26.4998 222.1L22.2998 238.6Z" fill="#FCE301"/>
<path d="M8.6001 246.8L14.1001 248.2L25.0001 251L26.4001 245.5L15.5001 242.7L18.2001 231.7L12.7001 230.3L8.6001 246.8Z" fill="#FCE301"/>
<path d="M89.7999 226.5L84.2999 225.1L73.2999 222.3L71.8999 227.8L82.8999 230.6L80.0999 241.6L85.5999 243L89.7999 226.5Z" fill="#FCE301"/>
<path d="M103.5 218.3L98.0002 216.9L87.1002 214.1L85.7002 219.6L96.7002 222.4L93.9002 233.3L99.4002 234.7L103.5 218.3Z" fill="#FCE301"/>
<path d="M117.3 210.1L111.8 208.7L100.8 205.9L99.3999 211.4L110.4 214.2L107.6 225.1L113.1 226.5L117.3 210.1Z" fill="#FCE301"/>
<path d="M95.1998 251.2L89.6998 249.8L78.6998 247.1L77.2998 252.6L88.2998 255.3L85.4998 266.3L90.9998 267.7L95.1998 251.2Z" fill="#FCE301"/>
<path d="M109 243L103.5 241.6L92.5001 238.8L91.1001 244.3L102.1 247.1L99.3001 258.1L104.8 259.5L109 243Z" fill="#FCE301"/>
<path d="M122.7 234.8L117.2 233.4L106.2 230.6L104.9 236.1L115.8 238.9L113.1 249.9L118.5 251.3L122.7 234.8Z" fill="#FCE301"/>
<path d="M107.5 271.9L113 273.3L124 276.1L125.4 270.6L114.4 267.8L117.2 256.8L111.7 255.4L107.5 271.9Z" fill="#FCE301"/>
<path d="M93.7002 280.1L99.2002 281.5L110.2 284.3L111.6 278.8L100.6 276L103.4 265L97.9002 263.6L93.7002 280.1Z" fill="#FCE301"/>
<path d="M79.8999 288.3L85.3999 289.7L96.3999 292.5L97.7999 287L86.7999 284.2L89.5999 273.2L84.0999 271.8L79.8999 288.3Z" fill="#FCE301"/>
<path d="M48.4 251.1L42.9 249.7L31.9 246.9L30.5 252.4L41.5 255.2L38.7 266.2L44.2 267.6L48.4 251.1Z" fill="#FCE301"/>
<path d="M62.1998 242.9L56.6998 241.5L45.6998 238.7L44.2998 244.2L55.2998 247L52.4998 258L57.9998 259.4L62.1998 242.9Z" fill="#FCE301"/>
<path d="M76.0001 234.7L70.5001 233.3L59.5001 230.5L58.1001 236L69.1001 238.8L66.3001 249.8L71.8001 251.2L76.0001 234.7Z" fill="#FCE301"/>
<path d="M53.8 275.9L48.3 274.5L37.4 271.7L36 277.2L46.9 280L44.2 290.9L49.7 292.3L53.8 275.9Z" fill="#FCE301"/>
<path d="M67.5998 267.6L62.0998 266.2L51.0998 263.5L49.7998 269L60.6998 271.7L57.9998 282.7L63.3998 284.1L67.5998 267.6Z" fill="#FCE301"/>
<path d="M81.4 259.4L75.9 258.1L64.9 255.3L63.5 260.8L74.5 263.5L71.7 274.5L77.2 275.9L81.4 259.4Z" fill="#FCE301"/>
<path d="M66.1001 296.5L71.6001 297.9L82.6001 300.7L84.0001 295.2L73.0001 292.4L75.8001 281.4L70.3001 280L66.1001 296.5Z" fill="#FCE301"/>
<path d="M52.3999 304.7L57.8999 306.1L68.8999 308.9L70.2999 303.4L59.2999 300.6L61.9999 289.6L56.5999 288.2L52.3999 304.7Z" fill="#FCE301"/>
<path d="M38.6001 312.9L44.1001 314.3L55.1001 317.1L56.5001 311.6L45.5001 308.8L48.3001 297.8L42.8001 296.4L38.6001 312.9Z" fill="#FCE301"/>
<path d="M202.5 243.4L197 242L186 239.2L184.6 244.7L195.6 247.5L192.8 258.5L198.3 259.8L202.5 243.4Z" fill="#FCE301"/>
<path d="M216.2 235.2L210.8 233.8L199.8 231L198.4 236.5L209.4 239.3L206.6 250.2L212.1 251.6L216.2 235.2Z" fill="#FCE301"/>
<path d="M230 227L224.5 225.6L213.5 222.8L212.1 228.3L223.1 231.1L220.3 242L225.8 243.4L230 227Z" fill="#FCE301"/>
<path d="M207.9 268.1L202.4 266.7L191.4 264L190 269.4L201 272.2L198.2 283.2L203.7 284.6L207.9 268.1Z" fill="#FCE301"/>
<path d="M221.7 259.9L216.2 258.5L205.2 255.7L203.8 261.2L214.8 264L212 275L217.5 276.4L221.7 259.9Z" fill="#FCE301"/>
<path d="M235.4 251.7L229.9 250.3L218.9 247.5L217.6 253L228.5 255.8L225.8 266.8L231.2 268.2L235.4 251.7Z" fill="#FCE301"/>
<path d="M220.2 288.8L225.7 290.2L236.7 293L238.1 287.5L227.1 284.7L229.9 273.7L224.4 272.3L220.2 288.8Z" fill="#FCE301"/>
<path d="M206.4 297L211.9 298.4L222.9 301.2L224.3 295.7L213.3 292.9L216.1 281.9L210.6 280.5L206.4 297Z" fill="#FCE301"/>
<path d="M192.6 305.2L198.1 306.6L209.1 309.4L210.5 303.9L199.5 301.1L202.3 290.1L196.8 288.7L192.6 305.2Z" fill="#FCE301"/>
<path d="M161.1 268L155.6 266.6L144.6 263.8L143.2 269.3L154.2 272.1L151.4 283.1L156.9 284.5L161.1 268Z" fill="#FCE301"/>
<path d="M174.9 259.8L169.4 258.4L158.4 255.6L157 261.1L168 263.9L165.2 274.9L170.7 276.2L174.9 259.8Z" fill="#FCE301"/>
<path d="M188.7 251.6L183.2 250.2L172.2 247.4L170.8 252.9L181.8 255.7L179 266.7L184.5 268.1L188.7 251.6Z" fill="#FCE301"/>
<path d="M166.5 292.7L161 291.4L150.1 288.6L148.7 294.1L159.7 296.8L156.9 307.8L162.4 309.2L166.5 292.7Z" fill="#FCE301"/>
<path d="M180.3 284.5L174.8 283.1L163.8 280.4L162.5 285.9L173.4 288.6L170.7 299.6L176.1 301L180.3 284.5Z" fill="#FCE301"/>
<path d="M194.1 276.3L188.6 274.9L177.6 272.2L176.2 277.7L187.2 280.4L184.4 291.4L189.9 292.8L194.1 276.3Z" fill="#FCE301"/>
<path d="M178.9 313.4L184.3 314.8L195.3 317.6L196.7 312.1L185.7 309.3L188.5 298.3L183 296.9L178.8 313.4H178.9Z" fill="#FCE301"/>
<path d="M165.1 321.6L170.6 323L181.6 325.8L183 320.3L172 317.5L174.8 306.5L169.3 305.1L165.1 321.6Z" fill="#FCE301"/>
<path d="M151.3 329.8L156.8 331.2L167.8 334L169.2 328.5L158.2 325.7L161 314.7L155.5 313.3L151.3 329.8Z" fill="#FCE301"/>
<path d="M232.5 309.5L227 308.1L216 305.3L214.6 310.8L225.6 313.6L222.8 324.6L228.3 326L232.5 309.5Z" fill="#FCE301"/>
<path d="M246.3 301.3L240.8 299.9L229.8 297.1L228.4 302.6L239.4 305.4L236.6 316.4L242.1 317.8L246.3 301.3Z" fill="#FCE301"/>
<path d="M265.5 317.8L260 316.5L249 313.7L247.6 319.2L258.6 321.9L255.8 332.9L261.3 334.3L265.5 317.8Z" fill="#FCE301"/>
<path d="M218.7 317.7L213.2 316.3L202.2 313.5L200.8 319L211.8 321.8L209 332.8L214.5 334.2L218.7 317.7Z" fill="#FCE301"/>
<path d="M119.8 292.6L114.3 291.2L103.3 288.4L101.9 293.9L112.9 296.7L110.1 307.7L115.6 309.1L119.8 292.6Z" fill="#FCE301"/>
<path d="M133.6 284.4L128.1 283L117.1 280.2L115.7 285.7L126.7 288.5L123.9 299.5L129.4 300.9L133.6 284.4Z" fill="#FCE301"/>
<path d="M147.3 276.2L141.8 274.8L130.9 272L129.5 277.5L140.5 280.3L137.7 291.3L143.2 292.7L147.3 276.2Z" fill="#FCE301"/>
<path d="M125.2 317.4L119.7 316L108.7 313.2L107.3 318.7L118.3 321.5L115.5 332.4L121 333.8L125.2 317.4Z" fill="#FCE301"/>
<path d="M139 309.1L133.5 307.8L122.5 305L121.1 310.5L132.1 313.2L129.3 324.2L134.8 325.6L139 309.1Z" fill="#FCE301"/>
<path d="M152.8 300.9L147.3 299.6L136.3 296.8L134.9 302.3L145.9 305L143.1 316L148.6 317.4L152.8 300.9Z" fill="#FCE301"/>
<path d="M78.4001 317.2L73.0001 315.8L62.0001 313L60.6001 318.5L71.6001 321.3L68.8001 332.3L74.3001 333.7L78.5001 317.2H78.4001Z" fill="#FCE301"/>
<path d="M92.1999 309L86.6999 307.6L75.7999 304.8L74.3999 310.3L85.3999 313.1L82.5999 324.1L88.0999 325.5L92.1999 309Z" fill="#FCE301"/>
<path d="M106 300.8L100.5 299.4L89.5001 296.6L88.1001 302.1L99.1001 304.9L96.3001 315.9L101.8 317.3L106 300.8Z" fill="#FCE301"/>
<path d="M294 20.9L288.5 19.5L277.5 16.7L276.1 22.2L287.1 25L284.3 36L289.8 37.4L294 20.9Z" fill="#FCE301"/>
<path d="M307.8 12.7L302.3 11.3L291.3 8.5L289.9 14L300.9 16.8L298.1 27.8L303.6 29.2L307.8 12.7Z" fill="#FCE301"/>
<path d="M321.5 4.5L316 3.09998L305 0.299988L303.7 5.79999L314.6 8.59998L311.9 19.6L317.4 21L321.5 4.5Z" fill="#FCE301"/>
<path d="M299.4 45.7L293.9 44.3L282.9 41.5L281.5 47L292.5 49.8L289.7 60.8L295.2 62.1L299.4 45.7Z" fill="#FCE301"/>
<path d="M313.2 37.5L307.7 36.1L296.7 33.3L295.3 38.8L306.3 41.6L303.5 52.5L309 53.9L313.2 37.5Z" fill="#FCE301"/>
<path d="M326.9 29.3L321.5 27.9L310.5 25.1L309.1 30.6L320.1 33.4L317.3 44.3L322.8 45.7L326.9 29.3Z" fill="#FCE301"/>
<path d="M311.7 66.3L317.2 67.7L328.2 70.5L329.6 65L318.6 62.2L321.4 51.2L315.9 49.8L311.7 66.3Z" fill="#FCE301"/>
<path d="M297.9 74.5L303.4 75.9L314.4 78.7L315.8 73.2L304.8 70.4L307.6 59.4L302.1 58L297.9 74.5Z" fill="#FCE301"/>
<path d="M284.1 82.7L289.6 84.1L300.6 86.9L302 81.4L291 78.6L293.8 67.6L288.3 66.2L284.1 82.7Z" fill="#FCE301"/>
<path d="M252.6 45.5L247.1 44.1L236.2 41.3L234.8 46.8L245.8 49.6L243 60.6L248.5 62L252.6 45.5Z" fill="#FCE301"/>
<path d="M266.4 37.3L260.9 35.9L249.9 33.1L248.6 38.6L259.5 41.4L256.8 52.4L262.3 53.8L266.4 37.3Z" fill="#FCE301"/>
<path d="M280.2 29.1L274.7 27.7L263.7 24.9L262.3 30.4L273.3 33.2L270.5 44.2L276 45.6L280.2 29.1Z" fill="#FCE301"/>
<path d="M258.1 70.3L252.6 68.9L241.6 66.1L240.2 71.6L251.2 74.4L248.4 85.4L253.9 86.8L258.1 70.3Z" fill="#FCE301"/>
<path d="M271.8 62.1L266.4 60.7L255.4 57.9L254 63.4L265 66.2L262.2 77.2L267.7 78.5L271.8 62.1Z" fill="#FCE301"/>
<path d="M285.6 53.9L280.1 52.5L269.1 49.7L267.7 55.2L278.7 58L275.9 69L281.4 70.4L285.6 53.9Z" fill="#FCE301"/>
<path d="M270.4 90.9L275.9 92.3L286.9 95.1L288.2 89.6L277.3 86.8L280 75.9L274.5 74.5L270.4 90.9Z" fill="#FCE301"/>
<path d="M256.6 99.1L262.1 100.5L273.1 103.3L274.5 97.8L263.5 95L266.3 84.1L260.8 82.7L256.6 99.1Z" fill="#FCE301"/>
<path d="M242.8 107.3L248.3 108.7L259.3 111.5L260.7 106L249.7 103.2L252.5 92.3L247 90.9L242.8 107.3Z" fill="#FCE301"/>
<path d="M324 87L318.5 85.6L307.5 82.8L306.1 88.3L317.1 91.1L314.3 102.1L319.8 103.5L324 87Z" fill="#FCE301"/>
<path d="M337.8 78.8L332.3 77.4L321.3 74.6L319.9 80.1L330.9 82.9L328.1 93.9L333.6 95.3L337.8 78.8Z" fill="#FCE301"/>
<path d="M351.6 70.6L346.1 69.2L335.1 66.4L333.7 71.9L344.7 74.7L341.9 85.7L347.4 87.1L351.6 70.6Z" fill="#FCE301"/>
<path d="M329.4 111.8L323.9 110.4L312.9 107.6L311.5 113.1L322.5 115.9L319.7 126.9L325.2 128.3L329.4 111.8Z" fill="#FCE301"/>
<path d="M343.2 103.6L337.7 102.2L326.7 99.4L325.3 104.9L336.3 107.7L333.5 118.7L339 120.1L343.2 103.6Z" fill="#FCE301"/>
<path d="M357 95.4L351.5 94L340.5 91.2L339.1 96.7L350.1 99.5L347.3 110.5L352.8 111.9L357 95.4Z" fill="#FCE301"/>
<path d="M341.7 132.4L347.2 133.8L358.2 136.6L359.6 131.1L348.6 128.3L351.4 117.4L345.9 116L341.7 132.4Z" fill="#FCE301"/>
<path d="M327.9 140.6L333.4 142L344.4 144.8L345.8 139.3L334.8 136.5L337.6 125.6L332.1 124.2L327.9 140.6Z" fill="#FCE301"/>
<path d="M314.2 148.9L319.7 150.2L330.6 153L332 147.5L321.1 144.8L323.8 133.8L318.3 132.4L314.2 148.9Z" fill="#FCE301"/>
<path d="M282.7 111.6L277.2 110.2L266.2 107.4L264.8 112.9L275.8 115.7L273 126.7L278.5 128.1L282.7 111.6Z" fill="#FCE301"/>
<path d="M296.5 103.4L291 102L280 99.2L278.6 104.7L289.6 107.5L286.8 118.5L292.3 119.9L296.5 103.4Z" fill="#FCE301"/>
<path d="M310.2 95.2L304.7 93.8L293.7 91L292.4 96.5L303.3 99.3L300.6 110.3L306 111.7L310.2 95.2Z" fill="#FCE301"/>
<path d="M288.1 136.4L282.6 135L271.6 132.2L270.2 137.7L281.2 140.5L278.4 151.5L283.9 152.9L288.1 136.4Z" fill="#FCE301"/>
<path d="M301.9 128.2L296.4 126.8L285.4 124L284 129.5L295 132.3L292.2 143.3L297.7 144.7L301.9 128.2Z" fill="#FCE301"/>
<path d="M315.6 120L310.2 118.6L299.2 115.8L297.8 121.3L308.8 124.1L306 135.1L311.5 136.5L315.6 120Z" fill="#FCE301"/>
<path d="M300.4 157.1L305.9 158.5L316.9 161.2L318.3 155.7L307.3 153L310.1 142L304.6 140.6L300.4 157.1Z" fill="#FCE301"/>
<path d="M286.6 165.3L292.1 166.7L303.1 169.4L304.5 163.9L293.5 161.2L296.3 150.2L290.8 148.8L286.6 165.3Z" fill="#FCE301"/>
<path d="M272.8 173.5L278.3 174.9L289.3 177.6L290.7 172.2L279.7 169.4L282.5 158.4L277 157L272.8 173.5Z" fill="#FCE301"/>
<path d="M211.3 70.1L205.8 68.7L194.8 65.9L193.4 71.4L204.4 74.2L201.6 85.2L207.1 86.6L211.3 70.1Z" fill="#FCE301"/>
<path d="M225.1 61.9L219.6 60.5L208.6 57.7L207.2 63.2L218.2 66L215.4 77L220.9 78.4L225.1 61.9Z" fill="#FCE301"/>
<path d="M238.9 53.7L233.4 52.3L222.4 49.5L221 55L232 57.8L229.2 68.8L234.7 70.2L238.9 53.7Z" fill="#FCE301"/>
<path d="M216.7 94.9L211.2 93.5L200.2 90.7L198.8 96.2L209.8 99L207 110L212.5 111.4L216.7 94.9Z" fill="#FCE301"/>
<path d="M230.5 86.7L225 85.3L214 82.5L212.6 88L223.6 90.8L220.8 101.8L226.3 103.2L230.5 86.7Z" fill="#FCE301"/>
<path d="M244.3 78.5L238.8 77.1L227.8 74.3L226.4 79.8L237.4 82.6L234.6 93.6L240.1 95L244.3 78.5Z" fill="#FCE301"/>
<path d="M229 115.6L234.5 116.9L245.5 119.7L246.9 114.2L235.9 111.5L238.7 100.5L233.2 99.1L229 115.6Z" fill="#FCE301"/>
<path d="M215.2 123.8L220.7 125.1L231.7 127.9L233.1 122.4L222.1 119.7L224.9 108.7L219.4 107.3L215.2 123.8Z" fill="#FCE301"/>
<path d="M201.5 132L207 133.3L217.9 136.1L219.3 130.6L208.3 127.9L211.1 116.9L205.6 115.5L201.5 132Z" fill="#FCE301"/>
<path d="M170 94.7L164.5 93.3L153.5 90.5L152.1 96L163.1 98.8L160.3 109.8L165.8 111.2L170 94.7Z" fill="#FCE301"/>
<path d="M183.8 86.5L178.3 85.1L167.3 82.3L165.9 87.8L176.9 90.6L174.1 101.6L179.6 103L183.8 86.5Z" fill="#FCE301"/>
<path d="M197.5 78.3L192 76.9L181 74.1L179.7 79.6L190.6 82.4L187.9 93.4L193.3 94.8L197.5 78.3Z" fill="#FCE301"/>
<path d="M175.4 119.5L169.9 118.1L158.9 115.3L157.5 120.8L168.5 123.6L165.7 134.6L171.2 136L175.4 119.5Z" fill="#FCE301"/>
<path d="M189.2 111.3L183.7 109.9L172.7 107.1L171.3 112.6L182.3 115.4L179.5 126.4L185 127.8L189.2 111.3Z" fill="#FCE301"/>
<path d="M202.9 103.1L197.4 101.7L186.5 98.9L185.1 104.4L196.1 107.2L193.3 118.2L198.8 119.6L202.9 103.1Z" fill="#FCE301"/>
<path d="M187.7 140.2L193.2 141.6L204.2 144.3L205.6 138.9L194.6 136.1L197.4 125.1L191.9 123.7L187.7 140.2Z" fill="#FCE301"/>
<path d="M173.9 148.4L179.4 149.8L190.4 152.5L191.8 147.1L180.8 144.3L183.6 133.3L178.1 131.9L173.9 148.4Z" fill="#FCE301"/>
<path d="M160.1 156.6L165.6 158L176.6 160.8L178 155.3L167 152.5L169.8 141.5L164.3 140.1L160.1 156.6Z" fill="#FCE301"/>
<path d="M241.3 136.2L235.8 134.8L224.8 132L223.4 137.5L234.4 140.3L231.6 151.3L237.1 152.7L241.3 136.2Z" fill="#FCE301"/>
<path d="M255.1 128L249.6 126.6L238.6 123.8L237.2 129.3L248.2 132.1L245.4 143.1L250.9 144.5L255.1 128Z" fill="#FCE301"/>
<path d="M268.9 119.8L263.4 118.4L252.4 115.6L251 121.1L262 123.9L259.2 134.9L264.7 136.3L268.9 119.8Z" fill="#FCE301"/>
<path d="M246.7 161L241.2 159.6L230.2 156.8L228.9 162.3L239.8 165.1L237.1 176.1L242.6 177.5L246.7 161Z" fill="#FCE301"/>
<path d="M260.5 152.8L255 151.4L244 148.6L242.6 154.1L253.6 156.9L250.8 167.9L256.3 169.3L260.5 152.8Z" fill="#FCE301"/>
<path d="M274.3 144.6L268.8 143.2L257.8 140.4L256.4 145.9L267.4 148.7L264.6 159.7L270.1 161.1L274.3 144.6Z" fill="#FCE301"/>
<path d="M259 181.7L264.5 183.1L275.5 185.9L276.9 180.4L265.9 177.6L268.7 166.6L263.2 165.2L259 181.7Z" fill="#FCE301"/>
<path d="M245.3 189.9L250.8 191.3L261.8 194.1L263.1 188.6L252.2 185.8L254.9 174.8L249.5 173.4L245.3 189.9Z" fill="#FCE301"/>
<path d="M231.5 198.1L237 199.5L248 202.3L249.4 196.8L238.4 194L241.2 183L235.7 181.6L231.5 198.1Z" fill="#FCE301"/>
<path d="M200 160.8L194.5 159.4L183.5 156.7L182.1 162.1L193.1 164.9L190.3 175.9L195.8 177.3L200 160.8Z" fill="#FCE301"/>
<path d="M213.8 152.6L208.3 151.2L197.3 148.4L195.9 153.9L206.9 156.7L204.1 167.7L209.6 169.1L213.8 152.6Z" fill="#FCE301"/>
<path d="M227.6 144.4L222.1 143L211.1 140.2L209.7 145.7L220.7 148.5L217.9 159.5L223.4 160.9L227.6 144.4Z" fill="#FCE301"/>
<path d="M205.4 185.6L199.9 184.2L188.9 181.4L187.5 186.9L198.5 189.7L195.7 200.7L201.2 202.1L205.4 185.6Z" fill="#FCE301"/>
<path d="M219.2 177.4L213.7 176L202.7 173.2L201.3 178.7L212.3 181.5L209.5 192.5L215 193.9L219.2 177.4Z" fill="#FCE301"/>
<path d="M233 169.2L227.5 167.8L216.5 165L215.1 170.5L226.1 173.3L223.3 184.3L228.8 185.7L233 169.2Z" fill="#FCE301"/>
<path d="M217.7 206.3L223.2 207.7L234.2 210.5L235.6 205L224.6 202.2L227.4 191.2L221.9 189.8L217.7 206.3Z" fill="#FCE301"/>
<path d="M203.9 214.5L209.4 215.9L220.4 218.7L221.8 213.2L210.8 210.4L213.6 199.4L208.1 198L203.9 214.5Z" fill="#FCE301"/>
<path d="M190.2 222.7L195.7 224.1L206.6 226.9L208 221.4L197 218.6L199.8 207.6L194.3 206.2L190.2 222.7Z" fill="#FCE301"/>
<path d="M354 153.1L348.5 151.7L337.5 148.9L336.1 154.4L347.1 157.2L344.3 168.2L349.8 169.6L354 153.1Z" fill="#FCE301"/>
<path d="M367.8 144.9L362.3 143.5L351.3 140.7L349.9 146.2L360.9 149L358.1 160L363.6 161.4L367.8 144.9Z" fill="#FCE301"/>
<path d="M381.6 136.7L376.1 135.3L365.1 132.5L363.7 138L374.7 140.8L371.9 151.8L377.4 153.2L381.6 136.7Z" fill="#FCE301"/>
<path d="M359.4 177.9L353.9 176.5L343 173.7L341.6 179.2L352.5 182L349.8 193L355.3 194.4L359.4 177.9Z" fill="#FCE301"/>
<path d="M373.2 169.7L367.7 168.3L356.7 165.5L355.3 171L366.3 173.8L363.6 184.8L369 186.2L373.2 169.7Z" fill="#FCE301"/>
<path d="M387 161.5L381.5 160.1L370.5 157.3L369.1 162.8L380.1 165.6L377.3 176.6L382.8 178L387 161.5Z" fill="#FCE301"/>
<path d="M371.7 198.6L377.2 200L388.2 202.7L389.6 197.3L378.6 194.5L381.4 183.5L375.9 182.1L371.7 198.6Z" fill="#FCE301"/>
<path d="M358 206.8L363.5 208.2L374.5 210.9L375.8 205.5L364.9 202.7L367.6 191.7L362.2 190.3L358 206.8Z" fill="#FCE301"/>
<path d="M344.2 215L349.7 216.4L360.7 219.2L362.1 213.7L351.1 210.9L353.9 199.9L348.4 198.5L344.2 215Z" fill="#FCE301"/>
<path d="M312.7 177.7L307.2 176.3L296.2 173.5L294.8 179L305.8 181.8L303 192.8L308.5 194.2L312.7 177.7Z" fill="#FCE301"/>
<path d="M326.5 169.5L321 168.1L310 165.3L308.6 170.8L319.6 173.6L316.8 184.6L322.3 186L326.5 169.5Z" fill="#FCE301"/>
<path d="M340.3 161.3L334.8 159.9L323.8 157.1L322.4 162.6L333.4 165.4L330.6 176.4L336.1 177.8L340.3 161.3Z" fill="#FCE301"/>
<path d="M318.1 202.5L312.6 201.1L301.6 198.3L300.2 203.8L311.2 206.6L308.4 217.6L313.9 219L318.1 202.5Z" fill="#FCE301"/>
<path d="M331.9 194.3L326.4 192.9L315.4 190.1L314 195.6L325 198.4L322.2 209.4L327.7 210.8L331.9 194.3Z" fill="#FCE301"/>
<path d="M345.7 186.1L340.2 184.7L329.2 181.9L327.8 187.4L338.8 190.2L336 201.2L341.5 202.6L345.7 186.1Z" fill="#FCE301"/>
<path d="M330.4 223.2L335.9 224.6L346.9 227.4L348.3 221.9L337.3 219.1L340.1 208.1L334.6 206.7L330.4 223.2Z" fill="#FCE301"/>
<path d="M316.6 231.4L322.1 232.8L333.1 235.6L334.5 230.1L323.5 227.3L326.3 216.3L320.8 214.9L316.6 231.4Z" fill="#FCE301"/>
<path d="M302.9 239.6L308.4 241L319.3 243.8L320.7 238.3L309.7 235.5L312.5 224.5L307 223.1L302.9 239.6Z" fill="#FCE301"/>
<path d="M384 219.2L378.6 217.8L367.6 215.1L366.2 220.6L377.2 223.3L374.4 234.3L379.9 235.7L384 219.2Z" fill="#FCE301"/>
<path d="M397.8 211L392.3 209.6L381.4 206.8L380 212.3L391 215.1L388.2 226.1L393.7 227.5L397.8 211Z" fill="#FCE301"/>
<path d="M389.5 244L384 242.6L373 239.8L371.6 245.3L382.6 248.1L379.8 259.1L385.3 260.5L389.5 244Z" fill="#FCE301"/>
<path d="M403.3 235.8L397.8 234.4L386.8 231.6L385.4 237.1L396.4 239.9L393.6 250.9L399.1 252.3L403.3 235.8Z" fill="#FCE301"/>
<path d="M417 227.6L411.5 226.2L400.5 223.4L399.1 228.9L410.1 231.7L407.3 242.7L412.8 244.1L417 227.6Z" fill="#FCE301"/>
<path d="M401.8 264.7L407.3 266.1L418.3 268.9L419.7 263.4L408.7 260.6L411.4 249.6L406 248.2L401.8 264.7Z" fill="#FCE301"/>
<path d="M388 272.9L393.5 274.3L404.5 277.1L405.9 271.6L394.9 268.8L397.7 257.8L392.2 256.4L388 272.9Z" fill="#FCE301"/>
<path d="M374.2 281.1L379.7 282.5L390.7 285.3L392.1 279.8L381.1 277L383.9 266L378.4 264.6L374.2 281.1Z" fill="#FCE301"/>
<path d="M342.7 243.9L337.2 242.5L326.2 239.7L324.8 245.2L335.8 248L333 258.9L338.5 260.3L342.7 243.9Z" fill="#FCE301"/>
<path d="M356.5 235.6L351 234.2L340 231.5L338.6 237L349.6 239.7L346.8 250.7L352.3 252.1L356.5 235.6Z" fill="#FCE301"/>
<path d="M370.3 227.4L364.8 226L353.8 223.3L352.4 228.8L363.4 231.5L360.6 242.5L366.1 243.9L370.3 227.4Z" fill="#FCE301"/>
<path d="M348.1 268.6L342.6 267.2L331.6 264.4L330.3 269.9L341.2 272.7L338.5 283.7L344 285.1L348.1 268.6Z" fill="#FCE301"/>
<path d="M361.9 260.4L356.4 259L345.4 256.2L344 261.7L355 264.5L352.2 275.5L357.7 276.9L361.9 260.4Z" fill="#FCE301"/>
<path d="M375.7 252.2L370.2 250.8L359.2 248L357.8 253.5L368.8 256.3L366 267.3L371.5 268.7L375.7 252.2Z" fill="#FCE301"/>
<path d="M360.4 289.3L365.9 290.7L376.9 293.5L378.3 288L367.3 285.2L370.1 274.2L364.6 272.8L360.4 289.3Z" fill="#FCE301"/>
<path d="M346.7 297.5L352.2 298.9L363.2 301.7L364.5 296.2L353.6 293.4L356.3 282.4L350.8 281L346.7 297.5Z" fill="#FCE301"/>
<path d="M332.9 305.7L338.4 307.1L349.4 309.9L350.8 304.4L339.8 301.6L342.6 290.6L337.1 289.2L332.9 305.7Z" fill="#FCE301"/>
<path d="M271.3 202.3L265.9 200.9L254.9 198.2L253.5 203.7L264.5 206.4L261.7 217.4L267.2 218.8L271.3 202.3Z" fill="#FCE301"/>
<path d="M285.1 194.1L279.6 192.7L268.7 189.9L267.3 195.4L278.2 198.2L275.5 209.2L281 210.6L285.1 194.1Z" fill="#FCE301"/>
<path d="M298.9 185.9L293.4 184.5L282.4 181.8L281 187.2L292 190L289.2 201L294.7 202.4L298.9 185.9Z" fill="#FCE301"/>
<path d="M276.8 227.1L271.3 225.7L260.3 222.9L258.9 228.4L269.9 231.2L267.1 242.2L272.6 243.6L276.8 227.1Z" fill="#FCE301"/>
<path d="M290.6 218.9L285.1 217.5L274.1 214.7L272.7 220.2L283.7 223L280.9 234L286.4 235.4L290.6 218.9Z" fill="#FCE301"/>
<path d="M304.3 210.7L298.8 209.3L287.8 206.5L286.4 212L297.4 214.8L294.6 225.8L300.1 227.2L304.3 210.7Z" fill="#FCE301"/>
<path d="M289.1 247.8L294.6 249.2L305.6 252L307 246.5L296 243.7L298.7 232.7L293.3 231.3L289.1 247.8Z" fill="#FCE301"/>
<path d="M275.3 256L280.8 257.4L291.8 260.2L293.2 254.7L282.2 251.9L285 240.9L279.5 239.5L275.3 256Z" fill="#FCE301"/>
<path d="M261.5 264.2L267 265.6L278 268.4L279.4 262.9L268.4 260.1L271.2 249.1L265.7 247.7L261.5 264.2Z" fill="#FCE301"/>
<path d="M230 227L224.5 225.6L213.5 222.8L212.1 228.3L223.1 231.1L220.3 242L225.8 243.4L230 227Z" fill="#FCE301"/>
<path d="M243.8 218.7L238.3 217.3L227.3 214.6L225.9 220.1L236.9 222.8L234.1 233.8L239.6 235.2L243.8 218.7Z" fill="#FCE301"/>
<path d="M257.6 210.5L252.1 209.2L241.1 206.4L239.7 211.9L250.7 214.6L247.9 225.6L253.4 227L257.6 210.5Z" fill="#FCE301"/>
<path d="M235.4 251.7L229.9 250.3L218.9 247.5L217.6 253L228.5 255.8L225.8 266.8L231.2 268.2L235.4 251.7Z" fill="#FCE301"/>
<path d="M249.2 243.5L243.7 242.1L232.7 239.3L231.3 244.8L242.3 247.6L239.5 258.6L245 260L249.2 243.5Z" fill="#FCE301"/>
<path d="M263 235.3L257.5 233.9L246.5 231.1L245.1 236.6L256.1 239.4L253.3 250.4L258.8 251.8L263 235.3Z" fill="#FCE301"/>
<path d="M247.7 272.4L253.2 273.8L264.2 276.6L265.6 271.1L254.6 268.3L257.4 257.3L251.9 255.9L247.7 272.4Z" fill="#FCE301"/>
<path d="M234 280.6L239.5 282L250.5 284.8L251.8 279.3L240.9 276.5L243.6 265.5L238.1 264.1L234 280.6Z" fill="#FCE301"/>
<path d="M220.2 288.8L225.7 290.2L236.7 293L238.1 287.5L227.1 284.7L229.9 273.7L224.4 272.3L220.2 288.8Z" fill="#FCE301"/>
<path d="M301.4 268.5L295.9 267.1L284.9 264.3L283.5 269.8L294.5 272.6L291.7 283.5L297.2 284.9L301.4 268.5Z" fill="#FCE301"/>
<path d="M315.2 260.2L309.7 258.9L298.7 256.1L297.3 261.6L308.3 264.3L305.5 275.3L311 276.7L315.2 260.2Z" fill="#FCE301"/>
<path d="M328.9 252.1L323.4 250.7L312.4 247.9L311.1 253.4L322 256.2L319.3 267.1L324.8 268.5L328.9 252.1Z" fill="#FCE301"/>
<path d="M306.8 293.2L301.3 291.8L290.3 289.1L288.9 294.5L299.9 297.3L297.1 308.3L302.6 309.7L306.8 293.2Z" fill="#FCE301"/>
<path d="M320.6 285L315.1 283.6L304.1 280.8L302.7 286.3L313.7 289.1L310.9 300.1L316.4 301.5L320.6 285Z" fill="#FCE301"/>
<path d="M334.3 276.8L328.9 275.4L317.9 272.6L316.5 278.1L327.5 280.9L324.7 291.9L330.2 293.3L334.4 276.8H334.3Z" fill="#FCE301"/>
<path d="M319.1 313.9L324.6 315.3L335.6 318.1L337 312.6L326 309.8L328.8 298.8L323.3 297.4L319.1 313.9Z" fill="#FCE301"/>
<path d="M305.3 322.1L310.8 323.5L321.8 326.3L323.2 320.8L312.2 318L315 307L309.5 305.6L305.3 322.1Z" fill="#FCE301"/>
<path d="M291.5 330.3L297 331.7L308 334.5L309.4 329L298.4 326.2L301.2 315.2L295.7 313.8L291.5 330.3Z" fill="#FCE301"/>
<path d="M260 293.1L254.5 291.7L243.6 288.9L242.2 294.4L253.2 297.2L250.4 308.2L255.9 309.6L260 293.1Z" fill="#FCE301"/>
<path d="M273.8 284.9L268.3 283.5L257.4 280.7L256 286.2L266.9 289L264.2 300L269.7 301.3L273.8 284.9Z" fill="#FCE301"/>
<path d="M287.6 276.7L282.1 275.3L271.1 272.5L269.7 278L280.7 280.8L277.9 291.8L283.4 293.1L287.6 276.7Z" fill="#FCE301"/>
<path d="M265.5 317.8L260 316.5L249 313.7L247.6 319.2L258.6 321.9L255.8 332.9L261.3 334.3L265.5 317.8Z" fill="#FCE301"/>
<path d="M279.2 309.6L273.8 308.2L262.8 305.5L261.4 310.9L272.4 313.7L269.6 324.7L275.1 326.1L279.3 309.6H279.2Z" fill="#FCE301"/>
<path d="M293 301.4L287.5 300L276.5 297.3L275.1 302.8L286.1 305.5L283.3 316.5L288.8 317.9L293 301.4Z" fill="#FCE301"/>
</svg>
