<svg width="33" height="41" viewBox="0 0 33 41" fill="none" xmlns="http://www.w3.org/2000/svg">
<path d="M32.9 27.8V5.29999H8.30005V4.20001C8.30005 2.00001 6.50005 0.200012 4.30005 0.200012C2.10005 0.200012 0.300049 2.00001 0.300049 4.20001V41H8.20004V27.7H32.9V27.8ZM2.70004 38.6V27.7H5.80005V38.6H2.70004ZM4.30005 2.60001C5.20005 2.60001 5.90005 3.30001 5.90005 4.20001V5.29999H2.80005V4.20001C2.70005 3.30001 3.40005 2.60001 4.30005 2.60001ZM14.4 16.5L2.70004 24.3V8.70001L14.4 16.5ZM16.6 18L27.7 25.4H5.40005L16.6 18ZM18.8 16.5L30.5 8.70001V24.3L18.8 16.5ZM16.6 15.1L5.50005 7.70001H27.8L16.6 15.1Z" fill="white"/>
</svg>
