<?xml version="1.0" encoding="utf-8"?>
<!-- Generator: Adobe Illustrator 23.0.4, SVG Export Plug-In . SVG Version: 6.00 Build 0)  -->
<svg version="1.1" id="Layer_1" xmlns="http://www.w3.org/2000/svg" xmlns:xlink="http://www.w3.org/1999/xlink" x="0px" y="0px"
	 viewBox="0 0 41 42.33" style="enable-background:new 0 0 41 42.33;" xml:space="preserve">
<style type="text/css">
	.st0{fill:#0076AB;}
</style>
<path class="st0" d="M-146.22,14.85L-162.5,0l-16.28,14.85l1.71,1.88l1.48-1.35v13.34c0,2.1,1.71,3.81,3.81,3.81h18.55
	c2.1,0,3.81-1.71,3.81-3.81V15.38l1.48,1.35L-146.22,14.85z M-151.96,28.72c0,0.7-0.57,1.27-1.27,1.27h-18.55
	c-0.7,0-1.27-0.57-1.27-1.27V13.06l10.54-9.62l10.54,9.62V28.72z M-160.56,21.19h-4.1v-4.1h4.1V21.19z"/>
<g>
	<path class="st0" d="M-115.23,2.53h16.53v8.39h-16.53V2.53L-115.23,2.53z M-94.63,16.58h-11.06v-3.12h9.54V-0.01h-21.62v13.48h9.54
		v3.12h-9.54v15.96h2.54V19.13h20.11L-94.63,16.58L-94.63,16.58z"/>
	<polygon class="st0" points="-89.45,16.58 -87.79,7.92 -90.29,7.44 -93.27,22.94 -105.57,22.94 -105.57,25.48 -99.85,25.48 
		-99.85,30 -103.66,30 -103.66,32.54 -93.42,32.54 -93.42,30 -97.3,30 -97.3,25.48 -91.17,25.48 -89.94,19.13 -87.77,19.13 
		-87.77,32.54 -85.22,32.54 -85.22,16.58 -89.45,16.58 	"/>
</g>
<g>
	<path class="st0" d="M-32.36,29.45h-6.87v-2.41h8.14v1.14C-31.09,28.88-31.66,29.45-32.36,29.45L-32.36,29.45z M-49.91,28.18v-1.14
		h8.14v2.41h-6.87C-49.34,29.45-49.91,28.88-49.91,28.18L-49.91,28.18z M-48.64,1.98h16.28c0.7,0,1.27,0.57,1.27,1.27V24.5h-18.82
		V3.25C-49.91,2.55-49.34,1.98-48.64,1.98L-48.64,1.98z M-32.36-0.56h-16.28c-2.1,0-3.82,1.71-3.82,3.82v24.93
		c0,2.1,1.71,3.82,3.82,3.82h16.28c2.1,0,3.82-1.71,3.82-3.82V3.25C-28.55,1.15-30.26-0.56-32.36-0.56L-32.36-0.56z"/>
	<polygon class="st0" points="-47.37,4.53 -33.63,4.53 -33.63,7.07 -47.37,7.07 -47.37,4.53 	"/>
	<polygon class="st0" points="-47.37,9.49 -33.63,9.49 -33.63,12.03 -47.37,12.03 -47.37,9.49 	"/>
	<polygon class="st0" points="-47.37,14.45 -33.63,14.45 -33.63,16.99 -47.37,16.99 -47.37,14.45 	"/>
	<polygon class="st0" points="-47.37,19.41 -37.96,19.41 -37.96,21.95 -47.37,21.95 -47.37,19.41 	"/>
</g>
<g>
	<path class="st0" d="M16.94,22.87h4.32v2.54h-4.32V22.87z M12.17,22.55c-0.88,0-1.59,0.71-1.59,1.59c0,0.88,0.71,1.59,1.59,1.59
		c0.88,0,1.59-0.71,1.59-1.59C13.76,23.26,13.05,22.55,12.17,22.55L12.17,22.55z M29.78,14.8H16.94v2.54h12.84V14.8z M12.17,14.48
		c-0.88,0-1.59,0.71-1.59,1.59c0,0.88,0.71,1.59,1.59,1.59c0.88,0,1.59-0.71,1.59-1.59C13.76,15.19,13.05,14.48,12.17,14.48
		L12.17,14.48z M29.78,7.17H16.94v2.54h12.84V7.17z M12.17,6.85c-0.88,0-1.59,0.71-1.59,1.59c0,0.88,0.71,1.59,1.59,1.59
		c0.88,0,1.59-0.71,1.59-1.59C13.76,7.56,13.05,6.85,12.17,6.85L12.17,6.85z M6.76,28.72V3.8c0-0.7,0.57-1.27,1.27-1.27h24.92
		c0.7,0,1.27,0.57,1.27,1.27v14.37h2.54V3.8c0-2.1-1.71-3.81-3.81-3.81H8.04c-2.1,0-3.81,1.71-3.81,3.81v24.92
		c0,2.1,1.71,3.81,3.81,3.81h14.68v-2.54H8.04C7.33,29.99,6.76,29.42,6.76,28.72L6.76,28.72z M34.98,32.54l-2.53-2.53
		c-0.86,0.51-1.86,0.81-2.93,0.81c-3.15,0-5.72-2.57-5.72-5.72c0-3.15,2.57-5.72,5.72-5.72c3.15,0,5.72,2.57,5.72,5.72
		c0,1.17-0.35,2.25-0.95,3.16l2.49,2.49L34.98,32.54z M29.52,28.27c1.75,0,3.18-1.43,3.18-3.18c0-1.75-1.43-3.18-3.18-3.18
		c-1.75,0-3.18,1.43-3.18,3.18C26.34,26.85,27.77,28.27,29.52,28.27L29.52,28.27z M29.52,28.27"/>
</g>
</svg>
