<?xml version="1.0" encoding="utf-8"?>
<!-- Generator: Adobe Illustrator 23.0.4, SVG Export Plug-In . SVG Version: 6.00 Build 0)  -->
<svg version="1.1" id="Layer_1" xmlns="http://www.w3.org/2000/svg" xmlns:xlink="http://www.w3.org/1999/xlink" x="0px" y="0px"
	 viewBox="0 0 41 42.33" style="enable-background:new 0 0 41 42.33;" xml:space="preserve">
<style type="text/css">
	.st0{fill:#0076AB;}
</style>
<g>
	<path class="st0" d="M28.64,34.9h-6.87v-2.41h8.14v1.14C29.91,34.33,29.34,34.9,28.64,34.9L28.64,34.9z M11.09,33.63v-1.14h8.14
		v2.41h-6.87C11.66,34.9,11.09,34.33,11.09,33.63L11.09,33.63z M12.36,7.43h16.28c0.7,0,1.27,0.57,1.27,1.27v21.25H11.09V8.7
		C11.09,8,11.66,7.43,12.36,7.43L12.36,7.43z M28.64,4.89H12.36c-2.1,0-3.82,1.71-3.82,3.82v24.93c0,2.1,1.71,3.82,3.82,3.82h16.28
		c2.1,0,3.82-1.71,3.82-3.82V8.7C32.45,6.6,30.74,4.89,28.64,4.89L28.64,4.89z"/>
	<polygon class="st0" points="13.63,9.98 27.37,9.98 27.37,12.53 13.63,12.53 13.63,9.98 	"/>
	<polygon class="st0" points="13.63,14.94 27.37,14.94 27.37,17.49 13.63,17.49 13.63,14.94 	"/>
	<polygon class="st0" points="13.63,19.9 27.37,19.9 27.37,22.45 13.63,22.45 13.63,19.9 	"/>
	<polygon class="st0" points="13.63,24.86 23.04,24.86 23.04,27.41 13.63,27.41 13.63,24.86 	"/>
</g>
</svg>
