<?xml version="1.0" encoding="utf-8"?>
<!-- Generator: Adobe Illustrator 23.0.4, SVG Export Plug-In . SVG Version: 6.00 Build 0)  -->
<svg version="1.1" id="Layer_1" xmlns="http://www.w3.org/2000/svg" xmlns:xlink="http://www.w3.org/1999/xlink" x="0px" y="0px"
	 viewBox="0 0 41 42.33" style="enable-background:new 0 0 41 42.33;" xml:space="preserve">
<style type="text/css">
	.st0{fill:#0076AB;}
</style>
<g>
	<path class="st0" d="M16.94,27.77h4.32v2.54h-4.32V27.77z M12.17,27.46c-0.88,0-1.59,0.71-1.59,1.59c0,0.88,0.71,1.59,1.59,1.59
		c0.88,0,1.59-0.71,1.59-1.59C13.76,28.17,13.05,27.46,12.17,27.46L12.17,27.46z M29.78,19.7H16.94v2.54h12.84V19.7z M12.17,19.38
		c-0.88,0-1.59,0.71-1.59,1.59c0,0.88,0.71,1.59,1.59,1.59c0.88,0,1.59-0.71,1.59-1.59C13.76,20.09,13.05,19.38,12.17,19.38
		L12.17,19.38z M29.78,12.07H16.94v2.54h12.84V12.07z M12.17,11.75c-0.88,0-1.59,0.71-1.59,1.59c0,0.88,0.71,1.59,1.59,1.59
		c0.88,0,1.59-0.71,1.59-1.59C13.76,12.47,13.05,11.75,12.17,11.75L12.17,11.75z M6.76,33.62V8.7c0-0.7,0.57-1.27,1.27-1.27h24.92
		c0.7,0,1.27,0.57,1.27,1.27v14.37h2.54V8.7c0-2.1-1.71-3.81-3.81-3.81H8.04c-2.1,0-3.81,1.71-3.81,3.81v24.92
		c0,2.1,1.71,3.81,3.81,3.81h14.68v-2.54H8.04C7.33,34.89,6.76,34.32,6.76,33.62L6.76,33.62z M34.98,37.44l-2.53-2.53
		c-0.86,0.51-1.86,0.81-2.93,0.81c-3.15,0-5.72-2.57-5.72-5.72c0-3.15,2.57-5.72,5.72-5.72c3.15,0,5.72,2.57,5.72,5.72
		c0,1.17-0.35,2.25-0.95,3.16l2.49,2.49L34.98,37.44z M29.52,33.18c1.75,0,3.18-1.43,3.18-3.18c0-1.75-1.43-3.18-3.18-3.18
		c-1.75,0-3.18,1.43-3.18,3.18C26.34,31.75,27.77,33.18,29.52,33.18L29.52,33.18z M29.52,33.18"/>
</g>
</svg>
