<?xml version="1.0" encoding="utf-8"?>
<!-- Generator: Adobe Illustrator 23.0.4, SVG Export Plug-In . SVG Version: 6.00 Build 0)  -->
<svg version="1.1" id="Layer_1" xmlns="http://www.w3.org/2000/svg" xmlns:xlink="http://www.w3.org/1999/xlink" x="0px" y="0px"
	 viewBox="0 0 41 42.33" style="enable-background:new 0 0 41 42.33;" xml:space="preserve">
<style type="text/css">
	.st0{fill:#0076AB;}
</style>
<g>
	<path class="st0" d="M6.77,7.43H23.3v8.39H6.77V7.43L6.77,7.43z M27.37,21.48H16.3v-3.12h9.54V4.89H4.22v13.48h9.54v3.12H4.22
		v15.96h2.54V24.03h20.11L27.37,21.48L27.37,21.48z"/>
	<polygon class="st0" points="32.55,21.48 34.21,12.82 31.71,12.34 28.73,27.84 16.43,27.84 16.43,30.39 22.15,30.39 22.15,34.9 
		18.34,34.9 18.34,37.44 28.58,37.44 28.58,34.9 24.7,34.9 24.7,30.39 30.83,30.39 32.06,24.03 34.23,24.03 34.23,37.44 
		36.78,37.44 36.78,21.48 32.55,21.48 	"/>
</g>
</svg>
